<svg version="1.0" xmlns="http://www.w3.org/2000/svg"
 width="501.3333333333333px" style="transform:scale(1.001,1);" height="376px" viewBox="0 0 320.000000 240.000000"
 preserveAspectRatio="xMidYMid meet">
<g transform="translate(0.000000,240.000000) scale(0.100000,-0.100000)"
fill="#000000" stroke="none">
<path d="M0 1205 l0 -1195 585 0 c551 0 585 1 585 18 0 20 -35 189 -45 217 -4 11 -14
36 -23 55 -18 42 -20 107 -4 178 10 44 8 70 -7 165 -27 156 -34 254 -33 458 0
169 1 179 32 271 17 52 39 107 48 120 9 14 38 56 65 94 39 58 47 76 47 115 0
26 -7 64 -16 84 -20 50 -7 81 44 101 20 9 51 22 67 29 44 20 225 73 260 77
l30 3 0 -85 c1 -92 18 -204 38 -242 16 -30 72 -99 135 -165 41 -42 65 -56 126
-77 42 -15 82 -26 89 -24 6 1 27 -1 45 -5 88 -19 89 -19 95 2 3 11 -4 37 -14
58 -11 21 -28 68 -39 106 l-19 69 26 67 c41 104 75 131 165 131 56 0 86 -16
107 -57 19 -37 13 -126 -14 -197 -38 -101 -32 -136 35 -211 50 -56 77 -116 96
-215 8 -47 24 -121 35 -165 33 -139 28 -187 -47 -429 -30 -96 -33 -113 -23
-147 10 -30 9 -47 -5 -88 -11 -36 -16 -86 -16 -180 l0 -131 375 0 375 0 0
1195 0 1195 -1600 0 -1600 0 0 -1195z"/>
<path d="M1589 1550 c-8 -22 -24 -37 -55 -52 l-44 -20 5 -97 c3 -53 13 -121 21 -151
l16 -55 37 42 c44 51 79 62 105 34 11 -12 27 -21 37 -21 20 0 49 -51 49 -86 0
-14 -12 -31 -30 -44 -17 -12 -37 -35 -46 -52 -8 -16 -29 -34 -45 -40 -18 -6
-39 -27 -55 -54 -26 -44 -26 -45 -14 -131 9 -59 10 -135 6 -234 -5 -101 -4
-149 3 -154 6 -3 11 -18 11 -32 0 -15 8 -35 17 -45 15 -17 15 -22 3 -41 -34
-54 -48 -91 -80 -217 -5 -19 -10 -47 -10 -62 l0 -28 210 0 c205 0 210 1 210
20 0 12 -7 32 -16 46 -14 20 -16 40 -10 112 6 84 6 87 -16 97 -20 9 -23 17
-23 64 1 45 5 57 27 75 22 18 27 31 32 101 4 44 18 150 31 235 28 182 49 365
49 435 l1 50 -124 62 c-139 69 -174 98 -232 195 -23 38 -46 71 -51 74 -4 3
-13 -9 -19 -26z"/>
</g>
</svg>
